<svg version="1.1" viewBox="0.0 0.0 1300.0 1032.0" fill="none" stroke="none" stroke-linecap="square" stroke-miterlimit="10" xmlns:xlink="http://www.w3.org/1999/xlink" xmlns="http://www.w3.org/2000/svg"><clipPath id="p.0"><path d="m0 0l1300.0 0l0 1032.0l-1300.0 0l0 -1032.0z" clip-rule="nonzero"/></clipPath><g clip-path="url(#p.0)"><path fill="#000000" fill-opacity="0.0" d="m0 0l1300.0 0l0 1032.0l-1300.0 0z" fill-rule="evenodd"/><path fill="#06d6a0" d="m232.85104 785.23193l0 0c0 -15.142456 12.275406 -27.417847 27.417877 -27.417847l773.1643 0c7.2716064 0 14.245483 2.8886108 19.38733 8.030457c5.1418457 5.1418457 8.030518 12.115723 8.030518 19.38739l0 109.66821c0 15.142456 -12.275391 27.417847 -27.417847 27.417847l-773.1643 0l0 0c-15.142471 0 -27.417877 -12.275391 -27.417877 -27.417847z" fill-rule="evenodd"/><path fill="#111111" d="m491.67136 853.06976q-0.5625 10.96875 -6.171875 16.78125q-5.59375 5.8125 -15.8125 5.8125q-10.265625 0 -16.3125 -7.796875q-6.046875 -7.8125 -6.046875 -21.171875l0 -12.375q0 -13.3125 6.203125 -21.046875q6.21875 -7.734375 16.953125 -7.734375q9.890625 0 15.296875 5.9375q5.421875 5.921875 5.890625 16.9375l-8.671875 0q-0.5625 -8.34375 -3.515625 -11.90625q-2.953125 -3.5625 -9.0 -3.5625q-6.984375 0 -10.734375 5.46875q-3.75 5.453125 -3.75 16.0l0 12.515625q0 10.359375 3.484375 15.890625q3.5 5.53125 10.203125 5.53125q6.703125 0 9.65625 -3.328125q2.953125 -3.328125 3.65625 -11.953125l8.671875 0zm18.75 -23.859375q4.7343445 -6.140625 12.0937195 -6.140625q13.453125 0 13.640625 17.953125l0 33.703125l-8.25 0l0 -33.328125q0 -5.953125 -2.0 -8.453125q-1.984375 -2.515625 -5.96875 -2.515625q-3.09375 0 -5.5625 2.0625q-2.4530945 2.0625 -3.9530945 5.390625l0 36.84375l-8.296875 0l0 -72.0l8.296875 0l0 26.484375zm64.171844 45.515625q-0.75 -1.640625 -1.078125 -5.53125q-4.40625 6.46875 -11.25 6.46875q-6.890625 0 -10.765625 -3.859375q-3.859375 -3.875 -3.859375 -10.90625q0 -7.734375 5.25 -12.28125q5.25 -4.546875 14.390625 -4.640625l6.09375 0l0 -5.390625q0 -4.546875 -2.015625 -6.46875q-2.015625 -1.921875 -6.140625 -1.921875q-3.75 0 -6.09375 2.234375q-2.34375 2.21875 -2.34375 5.640625l-8.296875 0q0 -3.890625 2.296875 -7.421875q2.296875 -3.546875 6.1875 -5.5625q3.890625 -2.015625 8.671875 -2.015625q7.78125 0 11.828125 3.875q4.0625 3.859375 4.15625 11.265625l0 25.59375q0.046875 5.859375 1.59375 10.171875l0 0.75l-8.625 0zm-11.0625 -6.609375q3.046875 0 5.8125 -1.6875q2.765625 -1.6875 4.03125 -4.21875l0 -12.09375l-4.6875 0q-5.90625 0.09375 -9.328125 2.65625q-3.421875 2.546875 -3.421875 7.140625q0 4.3125 1.734375 6.265625q1.734375 1.9375 5.859375 1.9375zm51.890625 -36.328125q-1.734375 -0.328125 -3.75 -0.328125q-6.375 0 -8.90625 6.984375l0 36.28125l-8.296875 0l0 -50.71875l8.0625 0l0.140625 5.15625q3.328125 -6.09375 9.421875 -6.09375q1.96875 0 3.28125 0.65625l0.046875 8.0625zm32.484375 42.9375q-0.75 -1.640625 -1.078125 -5.53125q-4.40625 6.46875 -11.25 6.46875q-6.890625 0 -10.765625 -3.859375q-3.859375 -3.875 -3.859375 -10.90625q0 -7.734375 5.25 -12.28125q5.25 -4.546875 14.390625 -4.640625l6.09375 0l0 -5.390625q0 -4.546875 -2.015625 -6.46875q-2.015625 -1.921875 -6.140625 -1.921875q-3.75 0 -6.09375 2.234375q-2.34375 2.21875 -2.34375 5.640625l-8.296875 0q0 -3.890625 2.296875 -7.421875q2.296875 -3.546875 6.1875 -5.5625q3.890625 -2.015625 8.671875 -2.015625q7.78125 0 11.828125 3.875q4.0625 3.859375 4.15625 11.265625l0 25.59375q0.046875 5.859375 1.59375 10.171875l0 0.75l-8.625 0zm-11.0625 -6.609375q3.046875 0 5.8125 -1.6875q2.765625 -1.6875 4.03125 -4.21875l0 -12.09375l-4.6875 0q-5.90625 0.09375 -9.328125 2.65625q-3.421875 2.546875 -3.421875 7.140625q0 4.3125 1.734375 6.265625q1.734375 1.9375 5.859375 1.9375zm48.5625 0.46875q4.125 0 6.609375 -2.546875q2.484375 -2.5625 2.71875 -7.296875l7.828125 0q-0.28125 7.3125 -5.1875 12.125q-4.890625 4.796875 -11.96875 4.796875q-9.421875 0 -14.375 -5.921875q-4.9375 -5.9375 -4.9375 -17.65625l0 -5.578125q0 -11.484375 4.921875 -17.453125q4.921875 -5.984375 14.34375 -5.984375q7.78125 0 12.34375 4.921875q4.578125 4.921875 4.859375 13.453125l-7.828125 0q-0.28125 -5.625 -2.703125 -8.4375q-2.40625 -2.8125 -6.671875 -2.8125q-5.53125 0 -8.203125 3.640625q-2.671875 3.625 -2.765625 11.921875l0 6.46875q0 8.953125 2.640625 12.65625q2.65625 3.703125 8.375 3.703125zm37.59375 -56.859375l0 12.28125l7.640625 0l0 6.703125l-7.640625 0l0 31.453125q0 3.0 0.984375 4.546875q0.984375 1.546875 3.375 1.546875q1.640625 0 3.328125 -0.5625l-0.09375 7.03125q-2.8125 0.9375 -5.765625 0.9375q-4.921875 0 -7.5 -3.515625q-2.578125 -3.515625 -2.578125 -9.9375l0 -31.5l-7.734375 0l0 -6.703125l7.734375 0l0 -12.28125l8.25 0zm35.62506 63.9375q-9.468811 0 -14.531311 -5.640625q-5.0625 -5.65625 -5.15625 -16.578125l0 -6.140625q0 -11.34375 4.9375 -17.78125q4.953125 -6.453125 13.812561 -6.453125q8.90625 0 13.3125 5.671875q4.40625 5.671875 4.5 17.671875l0 5.4375l-28.312561 0l0 1.171875q0 8.15625 3.0625 11.859375q3.078186 3.703125 8.843811 3.703125q3.65625 0 6.4375 -1.375q2.796875 -1.390625 5.234375 -4.390625l4.3125 5.25q-5.390625 7.59375 -16.453125 7.59375zm-0.9375 -45.46875q-5.156311 0 -7.640686 3.546875q-2.484375 3.53125 -2.8125 10.984375l19.968811 0l0 -1.125q-0.328125 -7.21875 -2.609375 -10.3125q-2.265625 -3.09375 -6.90625 -3.09375zm48.703125 1.59375q-1.734375 -0.328125 -3.75 -0.328125q-6.375 0 -8.90625 6.984375l0 36.28125l-8.296875 0l0 -50.71875l8.0625 0l0.140625 5.15625q3.328125 -6.09375 9.421875 -6.09375q1.96875 0 3.28125 0.65625l0.046875 8.0625zm32.90625 29.953125q0 -2.671875 -2.015625 -4.59375q-2.015625 -1.921875 -7.78125 -4.5q-6.703125 -2.765625 -9.453125 -4.734375q-2.734375 -1.96875 -4.09375 -4.46875q-1.359375 -2.515625 -1.359375 -5.984375q0 -6.1875 4.515625 -10.28125q4.53125 -4.109375 11.5625 -4.109375q7.40625 0 11.90625 4.3125q4.5 4.3125 4.5 11.0625l-8.25 0q0 -3.421875 -2.296875 -5.828125q-2.296875 -2.421875 -5.859375 -2.421875q-3.65625 0 -5.75 1.90625q-2.078125 1.890625 -2.078125 5.078125q0 2.53125 1.515625 4.078125q1.53125 1.546875 7.34375 4.078125q9.234375 3.609375 12.5625 7.0625q3.328125 3.4375 3.328125 8.734375q0 6.609375 -4.546875 10.578125q-4.546875 3.953125 -12.1875 3.953125q-7.921875 0 -12.84375 -4.546875q-4.921875 -4.546875 -4.921875 -11.53125l8.34375 0q0.140625 4.21875 2.578125 6.609375q2.4375 2.390625 6.84375 2.390625q4.125 0 6.28125 -1.84375q2.15625 -1.859375 2.15625 -5.0z" fill-rule="nonzero"/><path fill="#06d6a0" d="m227.19753 537.8006l0 0c0 -15.142456 12.275406 -27.417847 27.417877 -27.417847l773.16425 0c7.2716064 0 14.245483 2.8886719 19.38733 8.030518c5.1418457 5.1418457 8.030518 12.115662 8.030518 19.38733l0 109.66821c0 15.142456 -12.275391 27.417908 -27.417847 27.417908l-773.16425 0l0 0c-15.142471 0 -27.417877 -12.275452 -27.417877 -27.417908z" fill-rule="evenodd"/><path fill="#111111" d="m560.9944 627.29474l0 -68.25l16.265625 0q11.953125 0 18.5625 7.484375q6.609375 7.46875 6.609375 21.015625l0 11.4375q0 13.546875 -6.703125 20.9375q-6.703125 7.375 -19.453125 7.375l-15.28125 0zm8.578125 -60.84375l0 53.484375l6.890625 0q9.046875 0 13.21875 -5.171875q4.171875 -5.1875 4.265625 -15.359375l0 -12.09375q0 -10.78125 -4.15625 -15.8125q-4.140625 -5.046875 -12.53125 -5.046875l-7.6875 0zm71.15625 60.84375q-0.75 -1.640625 -1.078125 -5.53125q-4.40625 6.46875 -11.25 6.46875q-6.890625 0 -10.765625 -3.859375q-3.859375 -3.875 -3.859375 -10.90625q0 -7.734375 5.25 -12.28125q5.25 -4.546875 14.390625 -4.640625l6.09375 0l0 -5.390625q0 -4.546875 -2.015625 -6.46875q-2.015625 -1.921875 -6.140625 -1.921875q-3.75 0 -6.09375 2.234375q-2.34375 2.21875 -2.34375 5.640625l-8.296875 0q0 -3.890625 2.296875 -7.421875q2.296875 -3.546875 6.1875 -5.5625q3.890625 -2.015625 8.671875 -2.015625q7.78125 0 11.828125 3.875q4.0625 3.859375 4.15625 11.265625l0 25.59375q0.046875 5.859375 1.59375 10.171875l0 0.75l-8.625 0zm-11.0625 -6.609375q3.046875 0 5.8125 -1.6875q2.765625 -1.6875 4.03125 -4.21875l0 -12.09375l-4.6875 0q-5.90625 0.09375 -9.328125 2.65625q-3.421875 2.546875 -3.421875 7.140625q0 4.3125 1.734375 6.265625q1.734375 1.9375 5.859375 1.9375zm41.8125 -56.390625l0 12.28125l7.640625 0l0 6.703125l-7.640625 0l0 31.453125q0 3.0 0.984375 4.546875q0.984375 1.546875 3.375 1.546875q1.640625 0 3.328125 -0.5625l-0.09375 7.03125q-2.8125 0.9375 -5.765625 0.9375q-4.921875 0 -7.5 -3.515625q-2.578125 -3.515625 -2.578125 -9.9375l0 -31.5l-7.734375 0l0 -6.703125l7.734375 0l0 -12.28125l8.25 0zm43.59375 63.0q-0.75 -1.640625 -1.078125 -5.53125q-4.40625 6.46875 -11.25 6.46875q-6.890625 0 -10.765625 -3.859375q-3.859375 -3.875 -3.859375 -10.90625q0 -7.734375 5.25 -12.28125q5.25 -4.546875 14.390625 -4.640625l6.09375 0l0 -5.390625q0 -4.546875 -2.015625 -6.46875q-2.015625 -1.921875 -6.140625 -1.921875q-3.75 0 -6.09375 2.234375q-2.34375 2.21875 -2.34375 5.640625l-8.296875 0q0 -3.890625 2.296875 -7.421875q2.296875 -3.546875 6.1875 -5.5625q3.890625 -2.015625 8.671875 -2.015625q7.78125 0 11.828125 3.875q4.0625 3.859375 4.15625 11.265625l0 25.59375q0.046875 5.859375 1.59375 10.171875l0 0.75l-8.625 0zm-11.0625 -6.609375q3.046875 0 5.8125 -1.6875q2.765625 -1.6875 4.03125 -4.21875l0 -12.09375l-4.6875 0q-5.90625 0.09375 -9.328125 2.65625q-3.421875 2.546875 -3.421875 7.140625q0 4.3125 1.734375 6.265625q1.734375 1.9375 5.859375 1.9375z" fill-rule="nonzero"/><path fill="#06d6a0" d="m227.19753 290.36932l0 0c0 -15.142456 12.275406 -27.417877 27.417877 -27.417877l773.16425 0c7.2716064 0 14.245483 2.8886719 19.38733 8.030518c5.1418457 5.1418457 8.030518 12.115692 8.030518 19.38736l0 109.66821c0 15.142456 -12.275391 27.417847 -27.417847 27.417847l-773.16425 0l0 0c-15.142471 0 -27.417877 -12.275391 -27.417877 -27.417847z" fill-rule="evenodd"/><path fill="#111111" d="m436.79907 379.86343l-8.578125 0l0 -68.25l8.578125 0l0 68.25zm21.703125 -50.71875l0.234375 5.484375q4.828125 -6.421875 12.328125 -6.421875q13.453125 0 13.640625 17.953125l0 33.703125l-8.25 0l0 -33.328125q0 -5.953125 -2.0 -8.453125q-1.984375 -2.515625 -5.96875 -2.515625q-3.09375 0 -5.5625 2.0625q-2.453125 2.0625 -3.953125 5.390625l0 36.84375l-8.296875 0l0 -50.71875l7.828125 0zm42.28125 50.71875l0 -44.015625l-6.609375 0l0 -6.703125l6.609375 0l0 -5.859375q0.140625 -7.734375 3.90625 -12.0625q3.78125 -4.34375 10.671875 -4.34375q2.484375 0 5.015625 0.796875l-0.421875 7.03125q-1.78125 -0.421875 -3.796875 -0.421875q-7.078125 0 -7.078125 10.078125l0 4.78125l8.671875 0l0 6.703125l-8.671875 0l0 44.015625l-8.296875 0zm24.984375 -27.703125q0 -11.0625 5.359375 -17.5q5.375 -6.453125 14.1875 -6.453125q8.8125 0 14.171875 6.28125q5.375 6.28125 5.515625 17.109375l0 5.34375q0 11.015625 -5.34375 17.4375q-5.34375 6.421875 -14.25 6.421875q-8.8125 0 -14.140625 -6.234375q-5.3125 -6.234375 -5.5 -16.875l0 -5.53125zm8.296875 4.78125q0 7.828125 3.0625 12.3125q3.078125 4.46875 8.28125 4.46875q10.96875 0 11.296875 -15.84375l0 -5.71875q0 -7.78125 -3.09375 -12.296875q-3.09375 -4.53125 -8.296875 -4.53125q-5.109375 0 -8.1875 4.53125q-3.0625 4.515625 -3.0625 12.25l0 4.828125zm62.578125 -20.015625q-1.734375 -0.328125 -3.75 -0.328125q-6.375 0 -8.90625 6.984375l0 36.28125l-8.296875 0l0 -50.71875l8.0625 0l0.140625 5.15625q3.328125 -6.09375 9.421875 -6.09375q1.96875 0 3.28125 0.65625l0.046875 8.0625zm16.078125 -7.78125l0.1875 4.6875q4.640625 -5.625 12.234375 -5.625q8.484375 0 11.859375 7.359375q4.78125 -7.359375 13.3125 -7.359375q14.015625 0 14.34375 17.484375l0 34.171875l-8.25 0l0 -33.375q0 -5.53125 -1.96875 -8.21875q-1.96875 -2.703125 -6.65625 -2.703125q-3.75 0 -6.09375 2.90625q-2.34375 2.90625 -2.71875 7.40625l0 33.984375l-8.34375 0l0 -33.75q-0.140625 -10.546875 -8.578125 -10.546875q-6.28125 0 -8.859375 6.28125l0 38.015625l-8.25 0l0 -50.71875l7.78125 0zm90.515625 50.71875q-0.75 -1.640625 -1.078125 -5.53125q-4.40625 6.46875 -11.25 6.46875q-6.890625 0 -10.765625 -3.859375q-3.859375 -3.875 -3.859375 -10.90625q0 -7.734375 5.25 -12.28125q5.25 -4.546875 14.390625 -4.640625l6.09375 0l0 -5.390625q0 -4.546875 -2.015625 -6.46875q-2.015625 -1.921875 -6.140625 -1.921875q-3.75 0 -6.09375 2.234375q-2.34375 2.21875 -2.34375 5.640625l-8.296875 0q0 -3.890625 2.296875 -7.421875q2.296875 -3.546875 6.1875 -5.5625q3.890625 -2.015625 8.671875 -2.015625q7.78125 0 11.828125 3.875q4.0625 3.859375 4.15625 11.265625l0 25.59375q0.046875 5.859375 1.59375 10.171875l0 0.75l-8.625 0zm-11.0625 -6.609375q3.046875 0 5.8125 -1.6875q2.765625 -1.6875 4.03125 -4.21875l0 -12.09375l-4.6875 0q-5.90625 0.09375 -9.328125 2.65625q-3.421875 2.546875 -3.421875 7.140625q0 4.3125 1.734375 6.265625q1.734375 1.9375 5.859375 1.9375zm41.8125 -56.390625l0 12.28125l7.640625 0l0 6.703125l-7.640625 0l0 31.453125q0 3.0 0.984375 4.546875q0.984375 1.546875 3.375 1.546875q1.640625 0 3.328125 -0.5625l-0.09375 7.03125q-2.8125 0.9375 -5.765625 0.9375q-4.921875 0 -7.5 -3.515625q-2.578125 -3.515625 -2.578125 -9.9375l0 -31.5l-7.734375 0l0 -6.703125l7.734375 0l0 -12.28125l8.25 0zm26.437561 63.0l-8.296875 0l0 -50.71875l8.296875 0l0 50.71875zm0.65625 -64.171875q0 2.109375 -1.171875 3.515625q-1.171875 1.40625 -3.5625 1.40625q-2.34375 0 -3.515625 -1.40625q-1.171875 -1.40625 -1.171875 -3.515625q0 -2.109375 1.171875 -3.5625q1.171875 -1.453125 3.515625 -1.453125q2.34375 0 3.53125 1.484375q1.203125 1.46875 1.203125 3.53125zm10.640625 36.46875q0 -11.0625 5.359375 -17.5q5.375 -6.453125 14.1875 -6.453125q8.8125 0 14.171875 6.28125q5.375 6.28125 5.515625 17.109375l0 5.34375q0 11.015625 -5.34375 17.4375q-5.34375 6.421875 -14.25 6.421875q-8.8125 0 -14.140625 -6.234375q-5.3125 -6.234375 -5.5 -16.875l0 -5.53125zm8.296875 4.78125q0 7.828125 3.0625 12.3125q3.078125 4.46875 8.28125 4.46875q10.96875 0 11.296875 -15.84375l0 -5.71875q0 -7.78125 -3.09375 -12.296875q-3.09375 -4.53125 -8.296875 -4.53125q-5.109375 0 -8.1875 4.53125q-3.0625 4.515625 -3.0625 12.25l0 4.828125zm49.453125 -27.796875l0.234375 5.484375q4.828125 -6.421875 12.328125 -6.421875q13.453125 0 13.640625 17.953125l0 33.703125l-8.25 0l0 -33.328125q0 -5.953125 -2.0 -8.453125q-1.984375 -2.515625 -5.96875 -2.515625q-3.09375 0 -5.5625 2.0625q-2.453125 2.0625 -3.953125 5.390625l0 36.84375l-8.296875 0l0 -50.71875l7.828125 0z" fill-rule="nonzero"/><path fill="#06d6a0" d="m227.19753 42.938026l0 0c0 -15.142471 12.275406 -27.41787 27.417877 -27.41787l773.16425 0c7.2716064 0 14.245483 2.8886604 19.38733 8.030508c5.1418457 5.1418495 8.030518 12.11569 8.030518 19.387362l0 109.66819c0 15.142471 -12.275391 27.417877 -27.417847 27.417877l-773.16425 0l0 0c-15.142471 0 -27.417877 -12.275406 -27.417877 -27.417877z" fill-rule="evenodd"/><path fill="#111111" d="m456.29907 100.979l-6.703125 8.109375l0 23.343758l-8.578125 0l0 -68.25001l8.578125 0l0 32.953125l5.625 -7.453125l18.375 -25.5l10.3125 0l-22.171875 30.046875l23.90625 38.203133l-10.265625 0l-19.078125 -31.453133zm42.609375 -19.265625l0.234375 5.484375q4.828125 -6.421875 12.328125 -6.421875q13.453125 0 13.640625 17.953125l0 33.703133l-8.25 0l0 -33.328133q0 -5.953125 -2.0 -8.453125q-1.984375 -2.515625 -5.96875 -2.515625q-3.09375 0 -5.5625 2.0625q-2.453125 2.0625 -3.953125 5.390625l0 36.843758l-8.296875 0l0 -50.718758l7.828125 0zm36.890625 23.015625q0 -11.0625 5.359375 -17.5q5.375 -6.453125 14.1875 -6.453125q8.8125 0 14.171875 6.28125q5.375 6.28125 5.515625 17.109375l0 5.34375q0 11.015625 -5.34375 17.4375q-5.34375 6.4218826 -14.25 6.4218826q-8.8125 0 -14.140625 -6.2343826q-5.3125 -6.234375 -5.5 -16.875l0 -5.53125zm8.296875 4.78125q0 7.828125 3.0625 12.3125q3.078125 4.46875 8.28125 4.46875q10.96875 0 11.296875 -15.84375l0 -5.71875q0 -7.78125 -3.09375 -12.296875q-3.09375 -4.53125 -8.296875 -4.53125q-5.109375 0 -8.1875 4.53125q-3.0625 4.515625 -3.0625 12.25l0 4.828125zm79.453125 8.34375l7.6875 -36.140625l8.203125 0l-12.421875 50.718758l-6.609375 0l-9.890625 -36.281258l-9.65625 36.281258l-6.65625 0l-12.328125 -50.718758l8.15625 0l7.875 35.25l9.421875 -35.25l6.5625 0l9.65625 36.140625zm33.515625 14.578133l-8.296875 0l0 -72.0l8.296875 0l0 72.0zm31.171875 0.9375q-9.46875 0 -14.53125 -5.6406326q-5.0625 -5.65625 -5.15625 -16.578125l0 -6.140625q0 -11.34375 4.9375 -17.78125q4.953125 -6.453125 13.8125 -6.453125q8.90625 0 13.3125 5.671875q4.40625 5.671875 4.5 17.671875l0 5.4375l-28.3125 0l0 1.171875q0 8.15625 3.0625 11.859375q3.078125 3.703125 8.84375 3.703125q3.65625 0 6.4375 -1.375q2.796875 -1.390625 5.234375 -4.390625l4.3125 5.25q-5.390625 7.5937576 -16.453125 7.5937576zm-0.9375 -45.468758q-5.15625 0 -7.640625 3.546875q-2.484375 3.53125 -2.8125 10.984375l19.96875 0l0 -1.125q-0.328125 -7.21875 -2.609375 -10.3125q-2.265625 -3.09375 -6.90625 -3.09375zm26.015625 16.875q0 -11.71875 4.375 -17.859375q4.390625 -6.140625 12.59375 -6.140625q7.265625 0 11.34375 5.90625l0 -26.249996l8.296936 0l0 72.0l-7.593811 0l-0.421875 -5.4375076q-4.078125 6.3750076 -11.671875 6.3750076q-7.875 0 -12.359375 -6.1093826q-4.46875 -6.125 -4.5625 -17.28125l0 -5.203125zm8.296875 4.734375q0 8.53125 2.53125 12.546875q2.53125 4.0 8.25 4.0q6.1875 0 9.234375 -6.234375l0 -25.59375q-3.1875 -6.09375 -9.1875 -6.09375q-5.71875 0 -8.25 4.015625q-2.53125 4.0 -2.578125 12.296875l0 5.0625zm39.421936 -4.734375q0 -11.859375 4.3125 -17.921875q4.3125 -6.078125 12.609375 -6.078125q7.734375 0 11.765625 6.609375l0.421875 -5.671875l7.5 0l0 51.187508q0 9.421875 -4.828125 14.453125q-4.828125 5.046875 -13.453125 5.046875q-3.75 0 -8.421875 -1.859375q-4.65625 -1.84375 -7.0 -4.5625l3.375 -5.71875q5.15625 5.0625 11.390625 5.0625q10.359375 0 10.640625 -11.296875l0 -6.6093826q-4.03125 5.9531326 -11.4375 5.9531326q-7.875 0 -12.28125 -5.9218826q-4.40625 -5.9375 -4.59375 -17.046875l0 -5.625zm8.296875 4.734375q0 8.53125 2.5 12.546875q2.515625 4.0 8.234375 4.0q6.1875 0 9.28125 -6.328125l0 -25.359375q-3.234375 -6.234375 -9.1875 -6.234375q-5.71875 0 -8.25 4.015625q-2.53125 4.0 -2.578125 12.296875l0 5.0625zm58.78125 23.859383q-9.46875 0 -14.53125 -5.6406326q-5.0625 -5.65625 -5.15625 -16.578125l0 -6.140625q0 -11.34375 4.9375 -17.78125q4.953125 -6.453125 13.8125 -6.453125q8.90625 0 13.3125 5.671875q4.40625 5.671875 4.5 17.671875l0 5.4375l-28.3125 0l0 1.171875q0 8.15625 3.0625 11.859375q3.078125 3.703125 8.84375 3.703125q3.65625 0 6.4375 -1.375q2.796875 -1.390625 5.234375 -4.390625l4.3125 5.25q-5.390625 7.5937576 -16.453125 7.5937576zm-0.9375 -45.468758q-5.15625 0 -7.640625 3.546875q-2.484375 3.53125 -2.8125 10.984375l19.96875 0l0 -1.125q-0.328125 -7.21875 -2.609375 -10.3125q-2.265625 -3.09375 -6.90625 -3.09375z" fill-rule="nonzero"/><path fill="#cccccc" d="m13.596242 890.9203l440.4882 0l62.787384 62.787354l-62.787384 62.787415l-440.4882 0z" fill-rule="evenodd"/><path fill="#434343" d="m38.62749 934.33453l2.34375 1.6875q-1.859375 3.046875 -1.921875 6.375l0 3.234375l-4.109375 0l0 -2.71875q0 -2.359375 1.03125 -4.734375q1.03125 -2.390625 2.65625 -3.84375zm7.0 0l2.34375 1.6875q-1.859375 3.046875 -1.921875 6.375l0 3.234375l-4.109375 0l0 -2.71875q0 -2.359375 1.03125 -4.734375q1.03125 -2.390625 2.65625 -3.84375zm24.562504 4.765625l-11.734379 31.6875l-4.34375 0l11.718754 -30.5625l-15.203129 0l0 -3.5625l19.562504 0l0 2.4375zm5.7734375 7.171875l-2.328125 -1.6875q1.828125 -3.078125 1.90625 -6.375l0 -3.421875l4.09375 0l0 3.15625q-0.046875 2.25 -1.046875 4.5625q-0.984375 2.3125 -2.625 3.765625zm7.0 0l-2.328125 -1.6875q1.828125 -3.078125 1.90625 -6.375l0 -3.421875l4.09375 0l0 3.15625q-0.046875 2.25 -1.046875 4.5625q-0.984375 2.3125 -2.625 3.765625zm8.6953125 31.3125l-2.453125 -1.6875q2.203125 -3.0625 2.296875 -6.328125l0 -3.921875l4.234375 0l0 3.40625q0 2.375 -1.15625 4.734375q-1.15625 2.375 -2.921875 3.796875zm23.304688 -43.25l2.34375 1.6875q-1.859375 3.046875 -1.921875 6.375l0 3.234375l-4.109375 0l0 -2.71875q0 -2.359375 1.03125 -4.734375q1.03125 -2.390625 2.65625 -3.84375zm7.0 0l2.34375 1.6875q-1.859375 3.046875 -1.921875 6.375l0 3.234375l-4.109375 0l0 -2.71875q0 -2.359375 1.03125 -4.734375q1.03125 -2.390625 2.65625 -3.84375zm23.296867 11.234375q0 2.546875 -1.140625 4.546875q-1.125 1.984375 -3.046875 3.109375q2.265625 1.171875 3.546875 3.375q1.296875 2.1875 1.296875 4.96875q0 4.40625 -2.5 7.046875q-2.484375 2.640625 -6.609375 2.640625q-4.125 0 -6.625 -2.640625q-2.4999924 -2.640625 -2.4999924 -7.046875q0 -2.8125 1.2812424 -5.015625q1.28125 -2.21875 3.484375 -3.34375q-1.921875 -1.125 -3.03125 -3.109375q-1.09375 -1.984375 -1.09375 -4.53125q0 -4.3125 2.328125 -6.84375q2.328125 -2.53125 6.15625 -2.53125q3.796875 0 6.125 2.515625q2.328125 2.5 2.328125 6.859375zm-3.484375 15.90625q0 -2.921875 -1.390625 -4.6875q-1.375 -1.78125 -3.625 -1.78125q-2.296875 0 -3.625 1.78125q-1.328125 1.78125 -1.328125 4.6875q0 2.953125 1.296875 4.59375q1.3125 1.640625 3.703125 1.640625q2.390625 0 3.671875 -1.640625q1.296875 -1.640625 1.296875 -4.59375zm-0.640625 -15.84375q0 -2.59375 -1.21875 -4.234375q-1.21875 -1.640625 -3.109375 -1.640625q-2.0 0 -3.171875 1.625q-1.171875 1.609375 -1.171875 4.25q0 2.671875 1.1875 4.25q1.203125 1.5625 3.15625 1.5625q1.984375 0 3.15625 -1.59375q1.171875 -1.59375 1.171875 -4.21875zm11.1640625 0.640625l-2.328125 -1.6875q1.828125 -3.078125 1.90625 -6.375l0 -3.421875l4.09375 0l0 3.15625q-0.046875 2.25 -1.046875 4.5625q-0.984375 2.3125 -2.625 3.765625zm7.0 0l-2.328125 -1.6875q1.828125 -3.078125 1.90625 -6.375l0 -3.421875l4.09375 0l0 3.15625q-0.046875 2.25 -1.046875 4.5625q-0.984375 2.3125 -2.625 3.765625zm8.6953125 31.3125l-2.453125 -1.6875q2.203125 -3.0625 2.296875 -6.328125l0 -3.921875l4.234375 0l0 3.40625q0 2.375 -1.15625 4.734375q-1.15625 2.375 -2.921875 3.796875zm23.304688 -43.25l2.34375 1.6875q-1.859375 3.046875 -1.921875 6.375l0 3.234375l-4.109375 0l0 -2.71875q0 -2.359375 1.03125 -4.734375q1.03125 -2.390625 2.65625 -3.84375zm7.0 0l2.34375 1.6875q-1.859375 3.046875 -1.921875 6.375l0 3.234375l-4.109375 0l0 -2.71875q0 -2.359375 1.03125 -4.734375q1.03125 -2.390625 2.65625 -3.84375zm19.390625 21.875q-2.484375 3.15625 -5.8125 3.15625q-3.734375 0 -5.9375 -3.140625q-2.203125 -3.140625 -2.203125 -8.21875q0 -5.34375 2.40625 -8.578125q2.40625 -3.234375 6.546875 -3.234375q4.3125 0 6.734375 3.734375q2.4375 3.734375 2.4375 10.34375l0 1.296875q0 5.671875 -0.859375 9.1875q-0.859375 3.515625 -2.53125 5.671875q-1.65625 2.15625 -4.234375 3.28125q-2.578125 1.109375 -6.4375 1.109375l0 -3.671875l0.71875 0q4.40625 -0.09375 6.6875 -2.671875q2.296875 -2.59375 2.484375 -8.265625zm-5.109375 -0.421875q1.5 0 2.921875 -1.25q1.4375 -1.265625 2.234375 -3.296875l0 -1.828125q0 -4.25 -1.484375 -6.921875q-1.46875 -2.6875 -3.5625 -2.6875q-2.25 0 -3.578125 2.21875q-1.3125 2.203125 -1.3125 5.75q0 3.53125 1.28125 5.78125q1.296875 2.234375 3.5 2.234375zm16.054688 -9.515625l-2.328125 -1.6875q1.828125 -3.078125 1.90625 -6.375l0 -3.421875l4.09375 0l0 3.15625q-0.046875 2.25 -1.046875 4.5625q-0.984375 2.3125 -2.625 3.765625zm7.0 0l-2.328125 -1.6875q1.828125 -3.078125 1.90625 -6.375l0 -3.421875l4.09375 0l0 3.15625q-0.046875 2.25 -1.046875 4.5625q-0.984375 2.3125 -2.625 3.765625z" fill-rule="nonzero"/><path fill="#036b50" d="m1280.1208 890.9203l-440.48816 0l-62.787354 62.787354l62.787354 62.787415l440.48816 0z" fill-rule="evenodd"/><path fill="#ffffff" d="m869.71466 965.14764q0 -3.40625 -1.84375 -5.21875q-1.84375 -1.8125 -6.65625 -3.53125q-4.8125 -1.71875 -7.359375 -3.609375q-2.546875 -1.890625 -3.8125 -4.3125q-1.265625 -2.421875 -1.265625 -5.546875q0 -5.40625 3.609375 -8.90625q3.609375 -3.5 9.453125 -3.5q4.0 0 7.125 1.796875q3.125 1.796875 4.8125 4.984375q1.6875 3.1875 1.6875 7.0l-5.75 0q0 -4.21875 -2.03125 -6.53125q-2.03125 -2.3125 -5.84375 -2.3125q-3.46875 0 -5.375 1.9375q-1.90625 1.9375 -1.90625 5.4375q0 2.875 2.0625 4.8125q2.0625 1.9375 6.375 3.46875q6.71875 2.21875 9.609375 5.46875q2.890625 3.25 2.890625 8.5q0 5.53125 -3.59375 8.859375q-3.59375 3.328125 -9.78125 3.328125q-3.96875 0 -7.328125 -1.734375q-3.359375 -1.734375 -5.28125 -4.875q-1.921875 -3.140625 -1.921875 -7.203125l5.75 0q0 4.21875 2.359375 6.5625q2.359375 2.34375 6.421875 2.34375q3.78125 0 5.6875 -1.9375q1.90625 -1.9375 1.90625 -5.28125zm24.59375 12.125q-6.3125 0 -9.6875 -3.765625q-3.375 -3.765625 -3.4375 -11.046875l0 -4.09375q0 -7.5625 3.296875 -11.859375q3.296875 -4.296875 9.203125 -4.296875q5.9375 0 8.875 3.78125q2.9375 3.78125 3.0 11.78125l0 3.625l-18.875 0l0 0.78125q0 5.4375 2.046875 7.90625q2.046875 2.46875 5.890625 2.46875q2.4375 0 4.296875 -0.921875q1.859375 -0.921875 3.484375 -2.921875l2.875 3.5q-3.59375 5.0625 -10.96875 5.0625zm-0.625 -30.3125q-3.4375 0 -5.09375 2.359375q-1.65625 2.359375 -1.875 7.328125l13.3125 0l0 -0.75q-0.21875 -4.8125 -1.734375 -6.875q-1.515625 -2.0625 -4.609375 -2.0625zm25.75 -12.3125l0 8.1875l5.09375 0l0 4.46875l-5.09375 0l0 20.96875q0 2.0 0.65625 3.03125q0.65625 1.03125 2.25 1.03125q1.09375 0 2.21875 -0.375l-0.0625 4.6875q-1.875 0.625 -3.84375 0.625q-3.28125 0 -5.0 -2.34375q-1.71875 -2.34375 -1.71875 -6.625l0 -21.0l-5.15625 0l0 -4.46875l5.15625 0l0 -8.1875l5.5 0zm25.15625 23.53125q0 -7.375 3.578125 -11.671875q3.578125 -4.296875 9.453125 -4.296875q5.875 0 9.453125 4.1875q3.578125 4.1875 3.671875 11.40625l0 3.5625q0 7.34375 -3.5625 11.625q-3.5625 4.28125 -9.5 4.28125q-5.875 0 -9.421875 -4.15625q-3.546875 -4.15625 -3.671875 -11.25l0 -3.6875zm5.53125 3.1875q0 5.21875 2.046875 8.203125q2.046875 2.984375 5.515625 2.984375q7.3125 0 7.53125 -10.5625l0 -3.8125q0 -5.1875 -2.0625 -8.203125q-2.0625 -3.015625 -5.53125 -3.015625q-3.40625 0 -5.453125 3.015625q-2.046875 3.015625 -2.046875 8.171875l0 3.21875zm30.1875 15.28125l0 -29.34375l-4.40625 0l0 -4.46875l4.40625 0l0 -3.90625q0.09375 -5.15625 2.609375 -8.046875q2.515625 -2.890625 7.109375 -2.890625q1.65625 0 3.34375 0.53125l-0.28125 4.6875q-1.1875 -0.28125 -2.53125 -0.28125q-4.71875 0 -4.71875 6.71875l0 3.1875l5.78125 0l0 4.46875l-5.78125 0l0 29.34375l-5.53125 0zm53.12506 -11.5q0 -3.40625 -1.84375 -5.21875q-1.84375 -1.8125 -6.65625 -3.53125q-4.812561 -1.71875 -7.359436 -3.609375q-2.546875 -1.890625 -3.8125 -4.3125q-1.265625 -2.421875 -1.265625 -5.546875q0 -5.40625 3.609375 -8.90625q3.609375 -3.5 9.453186 -3.5q4.0 0 7.125 1.796875q3.125 1.796875 4.8125 4.984375q1.6875 3.1875 1.6875 7.0l-5.75 0q0 -4.21875 -2.03125 -6.53125q-2.03125 -2.3125 -5.84375 -2.3125q-3.468811 0 -5.375061 1.9375q-1.90625 1.9375 -1.90625 5.4375q0 2.875 2.0625 4.8125q2.0625 1.9375 6.375061 3.46875q6.71875 2.21875 9.609375 5.46875q2.890625 3.25 2.890625 8.5q0 5.53125 -3.59375 8.859375q-3.59375 3.328125 -9.78125 3.328125q-3.968811 0 -7.328186 -1.734375q-3.359375 -1.734375 -5.28125 -4.875q-1.921875 -3.140625 -1.921875 -7.203125l5.75 0q0 4.21875 2.359375 6.5625q2.359375 2.34375 6.421936 2.34375q3.78125 0 5.6875 -1.9375q1.90625 -1.9375 1.90625 -5.28125zm21.75 2.3125l6.15625 -24.625l5.875 0l-11.0625 38.59375q-1.25 4.34375 -3.53125 6.609375q-2.28125 2.265625 -5.1875 2.265625q-1.125 0 -2.875 -0.5l0 -4.6875l1.21875 0.125q2.40625 0 3.765625 -1.140625q1.359375 -1.140625 2.203125 -3.953125l1.09375 -3.78125l-9.9375 -33.53125l6.03125 0l6.25 24.625zm22.625 -24.625l0.125 3.125q3.09375 -3.75 8.15625 -3.75q5.65625 0 7.90625 4.90625q3.1875 -4.90625 8.875 -4.90625q9.34375 0 9.5625 11.65625l0 22.78125l-5.5 0l0 -22.25q0 -3.6875 -1.3125 -5.484375q-1.3125 -1.796875 -4.4375 -1.796875q-2.5 0 -4.0625 1.9375q-1.5625 1.9375 -1.8125 4.9375l0 22.65625l-5.5625 0l0 -22.5q-0.09375 -7.03125 -5.71875 -7.03125q-4.1875 0 -5.90625 4.1875l0 25.34375l-5.5 0l0 -33.8125l5.1875 0zm67.4375 18.53125q0 7.90625 -2.84375 11.90625q-2.84375 4.0 -8.25 4.0q-5.375 0 -8.0625 -4.625l-0.28125 4.0l-5.03125 0l0 -48.0l5.5 0l0 17.90625q2.71875 -4.34375 7.8125 -4.34375q5.5625 0 8.34375 3.9375q2.78125 3.9375 2.8125 11.875l0 3.34375zm-5.5 -3.15625q0 -6.0 -1.671875 -8.546875q-1.671875 -2.546875 -5.421875 -2.546875q-4.28125 0 -6.375 4.625l0 16.09375q2.0625 4.5625 6.4375 4.5625q3.75 0 5.375 -2.625q1.625 -2.625 1.65625 -8.15625l0 -3.40625zm11.40625 -0.03125q0 -7.375 3.578125 -11.671875q3.578125 -4.296875 9.453125 -4.296875q5.875 0 9.453125 4.1875q3.578125 4.1875 3.671875 11.40625l0 3.5625q0 7.34375 -3.5625 11.625q-3.5625 4.28125 -9.5 4.28125q-5.875 0 -9.421875 -4.15625q-3.546875 -4.15625 -3.671875 -11.25l0 -3.6875zm5.53125 3.1875q0 5.21875 2.046875 8.203125q2.046875 2.984375 5.515625 2.984375q7.3125 0 7.53125 -10.5625l0 -3.8125q0 -5.1875 -2.0625 -8.203125q-2.0625 -3.015625 -5.53125 -3.015625q-3.40625 0 -5.453125 3.015625q-2.046875 3.015625 -2.046875 8.171875l0 3.21875zm33.71875 15.28125l-5.53125 0l0 -48.0l5.53125 0l0 48.0zm25.125 -8.65625q0 -1.78125 -1.34375 -3.0625q-1.34375 -1.28125 -5.1875 -3.0q-4.46875 -1.84375 -6.296875 -3.15625q-1.828125 -1.3125 -2.734375 -2.984375q-0.90625 -1.671875 -0.90625 -3.984375q0 -4.125 3.015625 -6.859375q3.015625 -2.734375 7.703125 -2.734375q4.9375 0 7.9375 2.875q3.0 2.875 3.0 7.375l-5.5 0q0 -2.28125 -1.53125 -3.890625q-1.53125 -1.609375 -3.90625 -1.609375q-2.4375 0 -3.828125 1.265625q-1.390625 1.265625 -1.390625 3.390625q0 1.6875 1.015625 2.71875q1.015625 1.03125 4.890625 2.71875q6.15625 2.40625 8.375 4.703125q2.21875 2.296875 2.21875 5.828125q0 4.40625 -3.03125 7.046875q-3.03125 2.640625 -8.125 2.640625q-5.28125 0 -8.5625 -3.03125q-3.28125 -3.03125 -3.28125 -7.6875l5.5625 0q0.09375 2.8125 1.71875 4.40625q1.625 1.59375 4.5625 1.59375q2.75 0 4.1875 -1.234375q1.4375 -1.234375 1.4375 -3.328125z" fill-rule="nonzero"/><path fill="#036b50" d="m1286.4038 651.6867l-440.48822 0l-62.787415 62.787415l62.787415 62.787354l440.48822 0z" fill-rule="evenodd"/><path fill="#ffffff" d="m1086.7476 725.9141q0 -3.40625 -1.84375 -5.21875q-1.84375 -1.8125 -6.65625 -3.53125q-4.8125 -1.71875 -7.359375 -3.609375q-2.546875 -1.890625 -3.8125 -4.3125q-1.265625 -2.421875 -1.265625 -5.546875q0 -5.40625 3.609375 -8.90625q3.609375 -3.5 9.453125 -3.5q4.0 0 7.125 1.796875q3.125 1.796875 4.8125 4.984375q1.6875 3.1875 1.6875 7.0l-5.75 0q0 -4.21875 -2.03125 -6.53125q-2.03125 -2.3125 -5.84375 -2.3125q-3.46875 0 -5.375 1.9375q-1.90625 1.9375 -1.90625 5.4375q0 2.875 2.0625 4.8125q2.0625 1.9375 6.375 3.46875q6.71875 2.21875 9.609375 5.46875q2.890625 3.25 2.890625 8.5q0 5.53125 -3.59375 8.859375q-3.59375 3.328125 -9.78125 3.328125q-3.96875 0 -7.328125 -1.734375q-3.359375 -1.734375 -5.28125 -4.875q-1.921875 -3.140625 -1.921875 -7.203125l5.75 0q0 4.21875 2.359375 6.5625q2.359375 2.34375 6.421875 2.34375q3.78125 0 5.6875 -1.9375q1.90625 -1.9375 1.90625 -5.28125zm21.75 2.3125l6.15625 -24.625l5.875 0l-11.0625 38.59375q-1.25 4.34375 -3.53125 6.609375q-2.28125 2.265625 -5.1875 2.265625q-1.125 0 -2.875 -0.5l0 -4.6875l1.21875 0.125q2.40625 0 3.765625 -1.140625q1.359375 -1.140625 2.203125 -3.953125l1.09375 -3.78125l-9.9375 -33.53125l6.03125 0l6.25 24.625zm22.625 -24.625l0.15625 3.65625q3.21875 -4.28125 8.21875 -4.28125q8.96875 0 9.09375 11.96875l0 22.46875l-5.5 0l0 -22.21875q0 -3.96875 -1.328125 -5.640625q-1.328125 -1.671875 -3.984375 -1.671875q-2.0625 0 -3.703125 1.375q-1.640625 1.375 -2.640625 3.59375l0 24.5625l-5.53125 0l0 -33.8125l5.21875 0zm33.0 -8.1875l0 8.1875l5.09375 0l0 4.46875l-5.09375 0l0 20.96875q0 2.0 0.65625 3.03125q0.65625 1.03125 2.25 1.03125q1.09375 0 2.21875 -0.375l-0.0625 4.6875q-1.875 0.625 -3.84375 0.625q-3.28125 0 -5.0 -2.34375q-1.71875 -2.34375 -1.71875 -6.625l0 -21.0l-5.15625 0l0 -4.46875l5.15625 0l0 -8.1875l5.5 0zm29.0625 42.0q-0.5 -1.09375 -0.71875 -3.6875q-2.9375 4.3125 -7.5 4.3125q-4.59375 0 -7.171875 -2.578125q-2.578125 -2.578125 -2.578125 -7.265625q0 -5.15625 3.5 -8.1875q3.5 -3.03125 9.59375 -3.09375l4.0625 0l0 -3.59375q0 -3.03125 -1.34375 -4.3125q-1.34375 -1.28125 -4.09375 -1.28125q-2.5 0 -4.0625 1.484375q-1.5625 1.484375 -1.5625 3.765625l-5.53125 0q0 -2.59375 1.53125 -4.953125q1.53125 -2.359375 4.125 -3.703125q2.59375 -1.34375 5.78125 -1.34375q5.1875 0 7.890625 2.578125q2.703125 2.578125 2.765625 7.515625l0 17.0625q0.03125 3.90625 1.0625 6.78125l0 0.5l-5.75 0zm-7.375 -4.40625q2.03125 0 3.875 -1.125q1.84375 -1.125 2.6875 -2.8125l0 -8.0625l-3.125 0q-3.9375 0.0625 -6.21875 1.765625q-2.28125 1.703125 -2.28125 4.765625q0 2.875 1.15625 4.171875q1.15625 1.296875 3.90625 1.296875zm30.40625 -17.0625l5.78125 -12.34375l6.40625 0l-9.1875 16.71875l9.40625 17.09375l-6.34375 0l-5.96875 -12.65625l-6.0 12.65625l-6.375 0l9.40625 -17.09375l-9.15625 -16.71875l6.34375 0l5.6875 12.34375z" fill-rule="nonzero"/><path fill="#cccccc" d="m13.596242 651.6867l440.4882 0l62.787384 62.787415l-62.787384 62.787354l-440.4882 0z" fill-rule="evenodd"/><path fill="#434343" d="m53.580616 716.9916q0 7.546875 -2.203125 11.296875q-2.203125 3.734375 -6.921875 3.734375q-4.5625 0 -6.8125 -3.578125q-2.25 -3.59375 -2.34375 -10.796875l0 -5.859375q0 -7.46875 2.203125 -11.140625q2.21875 -3.6875 6.90625 -3.6875q4.625 0 6.828125 3.5q2.21875 3.484375 2.34375 10.5625l0 5.96875zm-4.15625 -5.921875q0 -5.421875 -1.203125 -7.984375q-1.1875 -2.5625 -3.8125 -2.5625q-2.546875 0 -3.75 2.515625q-1.1875 2.515625 -1.234375 7.609375l0 7.03125q0 5.390625 1.234375 8.09375q1.25 2.703125 3.796875 2.703125q2.53125 0 3.71875 -2.546875q1.203125 -2.5625 1.25 -7.8125l0 -7.046875zm10.0078125 27.28125l-2.453125 -1.6875q2.203125 -3.0625 2.296875 -6.328125l0 -3.921875l4.234375 0l0 3.40625q0 2.375 -1.15625 4.734375q-1.15625 2.375 -2.921875 3.796875zm26.578129 -32.015625q0 2.546875 -1.140625 4.546875q-1.125 1.984375 -3.046875 3.109375q2.265625 1.171875 3.546875 3.375q1.296875 2.1875 1.296875 4.96875q0 4.40625 -2.5 7.046875q-2.484375 2.640625 -6.609375 2.640625q-4.125 0 -6.625 -2.640625q-2.5 -2.640625 -2.5 -7.046875q0 -2.8125 1.28125 -5.015625q1.28125 -2.21875 3.484375 -3.34375q-1.921875 -1.125 -3.03125 -3.109375q-1.09375 -1.984375 -1.09375 -4.53125q0 -4.3125 2.328125 -6.84375q2.328125 -2.53125 6.15625 -2.53125q3.796875 0 6.125 2.515625q2.328125 2.5 2.328125 6.859375zm-3.484375 15.90625q0 -2.921875 -1.390625 -4.6875q-1.375 -1.78125 -3.625 -1.78125q-2.296875 0 -3.625 1.78125q-1.328125 1.78125 -1.328125 4.6875q0 2.953125 1.296875 4.59375q1.3125 1.640625 3.703125 1.640625q2.390625 0 3.671875 -1.640625q1.296875 -1.640625 1.296875 -4.59375zm-0.640625 -15.84375q0 -2.59375 -1.21875 -4.234375q-1.21875 -1.640625 -3.109375 -1.640625q-2.0 0 -3.171875 1.625q-1.171875 1.609375 -1.171875 4.25q0 2.671875 1.1875 4.25q1.203125 1.5625 3.15625 1.5625q1.984375 0 3.15625 -1.59375q1.171875 -1.59375 1.171875 -4.21875zm29.085938 -6.53125l-11.734375 31.6875l-4.34375 0l11.71875 -30.5625l-15.203125 0l0 -3.5625l19.5625 0l0 2.4375z" fill-rule="nonzero"/><path fill="#036b50" d="m1286.4038 412.45715l-440.48822 0l-62.787415 62.787384l62.787415 62.787384l440.48822 0z" fill-rule="evenodd"/><path fill="#ffffff" d="m1068.5913 483.74704q-0.375 7.3125 -4.109375 11.1875q-3.734375 3.875 -10.546875 3.875q-6.84375 0 -10.875 -5.203125q-4.03125 -5.203125 -4.03125 -14.109375l0 -8.25q0 -8.875 4.140625 -14.03125q4.140625 -5.15625 11.296875 -5.15625q6.59375 0 10.203125 3.953125q3.609375 3.953125 3.921875 11.296875l-5.78125 0q-0.375 -5.5625 -2.34375 -7.9375q-1.96875 -2.375 -6.0 -2.375q-4.65625 0 -7.15625 3.640625q-2.5 3.640625 -2.5 10.671875l0 8.34375q0 6.90625 2.328125 10.59375q2.328125 3.6875 6.796875 3.6875q4.46875 0 6.4375 -2.21875q1.96875 -2.21875 2.4375 -7.96875l5.78125 0zm5.8125 -4.03125q0 -7.375 3.578125 -11.671875q3.578125 -4.296875 9.453125 -4.296875q5.875 0 9.453125 4.1875q3.578125 4.1875 3.671875 11.40625l0 3.5625q0 7.34375 -3.5625 11.625q-3.5625 4.28125 -9.5 4.28125q-5.875 0 -9.421875 -4.15625q-3.546875 -4.15625 -3.671875 -11.25l0 -3.6875zm5.53125 3.1875q0 5.21875 2.046875 8.203125q2.046875 2.984375 5.515625 2.984375q7.3125 0 7.53125 -10.5625l0 -3.8125q0 -5.1875 -2.0625 -8.203125q-2.0625 -3.015625 -5.53125 -3.015625q-3.40625 0 -5.453125 3.015625q-2.046875 3.015625 -2.046875 8.171875l0 3.21875zm32.96875 -18.53125l0.15625 3.65625q3.21875 -4.28125 8.21875 -4.28125q8.96875 0 9.09375 11.96875l0 22.46875l-5.5 0l0 -22.21875q0 -3.96875 -1.328125 -5.640625q-1.328125 -1.671875 -3.984375 -1.671875q-2.0625 0 -3.703125 1.375q-1.640625 1.375 -2.640625 3.59375l0 24.5625l-5.53125 0l0 -33.8125l5.21875 0zm33.0 -8.1875l0 8.1875l5.09375 0l0 4.46875l-5.09375 0l0 20.96875q0 2.0 0.65625 3.03125q0.65625 1.03125 2.25 1.03125q1.09375 0 2.21875 -0.375l-0.0625 4.6875q-1.875 0.625 -3.84375 0.625q-3.28125 0 -5.0 -2.34375q-1.71875 -2.34375 -1.71875 -6.625l0 -21.0l-5.15625 0l0 -4.46875l5.15625 0l0 -8.1875l5.5 0zm23.75 42.625q-6.3125 0 -9.6875 -3.765625q-3.375 -3.765625 -3.4375 -11.046875l0 -4.09375q0 -7.5625 3.296875 -11.859375q3.296875 -4.296875 9.203125 -4.296875q5.9375 0 8.875 3.78125q2.9375 3.78125 3.0 11.78125l0 3.625l-18.875 0l0 0.78125q0 5.4375 2.046875 7.90625q2.046875 2.46875 5.890625 2.46875q2.4375 0 4.296875 -0.921875q1.859375 -0.921875 3.484375 -2.921875l2.875 3.5q-3.59375 5.0625 -10.96875 5.0625zm-0.625 -30.3125q-3.4375 0 -5.09375 2.359375q-1.65625 2.359375 -1.875 7.328125l13.3125 0l0 -0.75q-0.21875 -4.8125 -1.734375 -6.875q-1.515625 -2.0625 -4.609375 -2.0625zm28.28125 8.21875l5.78125 -12.34375l6.40625 0l-9.1875 16.71875l9.40625 17.09375l-6.34375 0l-5.96875 -12.65625l-6.0 12.65625l-6.375 0l9.40625 -17.09375l-9.15625 -16.71875l6.34375 0l5.6875 12.34375zm25.5625 -20.53125l0 8.1875l5.09375 0l0 4.46875l-5.09375 0l0 20.96875q0 2.0 0.65625 3.03125q0.65625 1.03125 2.25 1.03125q1.09375 0 2.21875 -0.375l-0.0625 4.6875q-1.875 0.625 -3.84375 0.625q-3.28125 0 -5.0 -2.34375q-1.71875 -2.34375 -1.71875 -6.625l0 -21.0l-5.15625 0l0 -4.46875l5.15625 0l0 -8.1875l5.5 0z" fill-rule="nonzero"/><path fill="#036b50" d="m1280.1208 156.96564l-440.48816 0l-62.787354 62.7874l62.787354 62.7874l440.48816 0z" fill-rule="evenodd"/><path fill="#ffffff" d="m1048.2147 242.69304l-5.75 0l-18.21875 -35.0625l0 35.0625l-5.750061 0l0 -45.5l5.750061 0l18.28125 35.21875l0 -35.21875l5.6875 0l0 45.5zm21.21875 0.625q-6.3125 0 -9.6875 -3.765625q-3.375 -3.765625 -3.4375 -11.046875l0 -4.09375q0 -7.5625 3.296875 -11.859375q3.296875 -4.296875 9.203125 -4.296875q5.9375 0 8.875 3.78125q2.9375 3.78125 3.0 11.78125l0 3.625l-18.875 0l0 0.78125q0 5.4375 2.046875 7.90625q2.046875 2.46875 5.890625 2.46875q2.4375 0 4.296875 -0.921875q1.859375 -0.921875 3.484375 -2.921875l2.875 3.5q-3.59375 5.0625 -10.96875 5.0625zm-0.625 -30.3125q-3.4375 0 -5.09375 2.359375q-1.65625 2.359375 -1.875 7.328125l13.3125 0l0 -0.75q-0.21875 -4.8125 -1.734375 -6.875q-1.515625 -2.0625 -4.609375 -2.0625zm25.75 -12.3125l0 8.1875l5.09375 0l0 4.46875l-5.09375 0l0 20.96875q0 2.0 0.65625 3.03125q0.65625 1.03125 2.25 1.03125q1.09375 0 2.21875 -0.375l-0.0625 4.6875q-1.875 0.625 -3.84375 0.625q-3.28125 0 -5.0 -2.34375q-1.71875 -2.34375 -1.71875 -6.625l0 -21.0l-5.15625 0l0 -4.46875l5.15625 0l0 -8.1875l5.5 0zm36.875 32.28125l5.125 -24.09375l5.46875 0l-8.28125 33.8125l-4.40625 0l-6.59375 -24.1875l-6.4375 24.1875l-4.4375 0l-8.21875 -33.8125l5.4375 0l5.25 23.5l6.28125 -23.5l4.375 0l6.4375 24.09375zm15.21875 -8.75q0 -7.375 3.578125 -11.671875q3.578125 -4.296875 9.453125 -4.296875q5.875 0 9.453125 4.1875q3.578125 4.1875 3.671875 11.40625l0 3.5625q0 7.34375 -3.5625 11.625q-3.5625 4.28125 -9.5 4.28125q-5.875 0 -9.421875 -4.15625q-3.546875 -4.15625 -3.671875 -11.25l0 -3.6875zm5.53125 3.1875q0 5.21875 2.046875 8.203125q2.046875 2.984375 5.515625 2.984375q7.3125 0 7.53125 -10.5625l0 -3.8125q0 -5.1875 -2.0625 -8.203125q-2.0625 -3.015625 -5.53125 -3.015625q-3.40625 0 -5.453125 3.015625q-2.046875 3.015625 -2.046875 8.171875l0 3.21875zm41.71875 -13.34375q-1.15625 -0.21875 -2.5 -0.21875q-4.25 0 -5.9375 4.65625l0 24.1875l-5.53125 0l0 -33.8125l5.375 0l0.09375 3.4375q2.21875 -4.0625 6.28125 -4.0625q1.3125 0 2.1875 0.4375l0.03125 5.375zm14.0 13.15625l-2.9375 3.375l0 12.09375l-5.53125 0l0 -48.0l5.53125 0l0 28.71875l10.53125 -14.53125l6.625 0l-10.75 14.125l12.15625 19.6875l-6.4375 0l-9.1875 -15.46875z" fill-rule="nonzero"/><path fill="#cccccc" d="m13.596242 406.13742l440.4882 0l62.787384 62.787415l-62.787384 62.787384l-440.4882 0z" fill-rule="evenodd"/><path fill="#434343" d="m52.643116 441.22357l-12.078125 0l0 12.09375l14.0625 0l0 3.6875l-18.34375 0l0 -34.125l18.109375 0l0 3.703125l-13.828125 0l0 10.96875l12.078125 0l0 3.671875zm14.226566 -0.328125l4.328125 -9.25l4.8125 0l-6.890625 12.53125l7.046875 12.828125l-4.75 0l-4.484375 -9.5l-4.500004 9.5l-4.78125 0l7.062504 -12.828125l-6.875004 -12.53125l4.765625 0l4.265629 9.25zm22.070312 13.03125q2.0625 0 3.296875 -1.265625q1.25 -1.28125 1.375 -3.65625l3.90625 0q-0.140625 3.65625 -2.59375 6.0625q-2.4375 2.40625 -5.984375 2.40625q-4.703125 0 -7.1875 -2.96875q-2.46875 -2.96875 -2.46875 -8.828125l0 -2.78125q0 -5.75 2.453125 -8.734375q2.46875 -2.984375 7.1875 -2.984375q3.890625 0 6.171875 2.46875q2.28125 2.453125 2.421875 6.71875l-3.90625 0q-0.140625 -2.8125 -1.359375 -4.21875q-1.203125 -1.40625 -3.328125 -1.40625q-2.765625 0 -4.109375 1.8125q-1.328125 1.8125 -1.375 5.96875l0 3.234375q0 4.46875 1.3125 6.328125q1.328125 1.84375 4.1875 1.84375zm17.515625 -19.6875q2.359375 -3.0625 6.046875 -3.0625q6.71875 0 6.8125 8.96875l0 16.859375l-4.125 0l0 -16.671875q0 -2.96875 -1.0 -4.21875q-0.984375 -1.265625 -2.984375 -1.265625q-1.546875 0 -2.78125 1.03125q-1.21875 1.03125 -1.96875 2.703125l0 18.421875l-4.15625 0l0 -36.0l4.15625 0l0 13.234375zm32.08593 22.765625q-0.375 -0.828125 -0.546875 -2.765625q-2.203125 3.234375 -5.625 3.234375q-3.4375 0 -5.3749924 -1.9375q-1.9375 -1.9375 -1.9375 -5.453125q0 -3.859375 2.625 -6.125q2.6249924 -2.28125 7.2031174 -2.328125l3.046875 0l0 -2.703125q0 -2.265625 -1.015625 -3.21875q-1.0 -0.96875 -3.0625 -0.96875q-1.875 0 -3.046875 1.109375q-1.171875 1.109375 -1.171875 2.828125l-4.1562424 0q0 -1.953125 1.140625 -3.71875q1.15625 -1.765625 3.0937424 -2.765625q1.953125 -1.015625 4.34375 -1.015625q3.890625 0 5.921875 1.9375q2.03125 1.921875 2.078125 5.625l0 12.796875q0.015625 2.9375 0.796875 5.09375l0 0.375l-4.3125 0zm-5.53125 -3.3125q1.515625 0 2.890625 -0.84375q1.390625 -0.84375 2.03125 -2.109375l0 -6.046875l-2.34375 0q-2.953125 0.046875 -4.671875 1.328125q-1.703125 1.28125 -1.703125 3.578125q0 2.15625 0.859375 3.125q0.875 0.96875 2.9375 0.96875zm19.382812 -22.046875l0.109375 2.734375q2.421875 -3.203125 6.171875 -3.203125q6.71875 0 6.8125 8.96875l0 16.859375l-4.125 0l0 -16.671875q0 -2.96875 -1.0 -4.21875q-0.984375 -1.265625 -2.984375 -1.265625q-1.546875 0 -2.78125 1.03125q-1.21875 1.03125 -1.96875 2.703125l0 18.421875l-4.15625 0l0 -25.359375l3.921875 0zm18.492188 11.53125q0 -5.9375 2.15625 -8.96875q2.15625 -3.03125 6.296875 -3.03125q3.875 0 5.890625 3.296875l0.203125 -2.828125l3.75 0l0 25.59375q0 4.71875 -2.421875 7.234375q-2.40625 2.515625 -6.71875 2.515625q-1.875 0 -4.203125 -0.921875q-2.328125 -0.921875 -3.5 -2.28125l1.6875 -2.859375q2.578125 2.53125 5.6875 2.53125q5.1875 0 5.328125 -5.65625l0 -3.3125q-2.015625 2.984375 -5.71875 2.984375q-3.9375 0 -6.140625 -2.96875q-2.203125 -2.96875 -2.296875 -8.515625l0 -2.8125zm4.140625 2.359375q0 4.265625 1.25 6.28125q1.265625 2.0 4.125 2.0q3.09375 0 4.640625 -3.171875l0 -12.671875q-1.625 -3.125 -4.59375 -3.125q-2.859375 0 -4.125 2.015625q-1.265625 2.0 -1.296875 6.140625l0 2.53125zm29.398438 11.9375q-4.734375 0 -7.265625 -2.828125q-2.53125 -2.828125 -2.578125 -8.28125l0 -3.078125q0 -5.671875 2.46875 -8.890625q2.46875 -3.21875 6.90625 -3.21875q4.453125 0 6.65625 2.84375q2.203125 2.828125 2.25 8.828125l0 2.71875l-14.15625 0l0 0.578125q0 4.078125 1.53125 5.9375q1.53125 1.84375 4.421875 1.84375q1.828125 0 3.21875 -0.6875q1.390625 -0.6875 2.609375 -2.1875l2.15625 2.625q-2.6875 3.796875 -8.21875 3.796875zm-0.46875 -22.734375q-2.578125 0 -3.828125 1.765625q-1.234375 1.765625 -1.40625 5.5l9.984375 0l0 -0.5625q-0.15625 -3.609375 -1.296875 -5.15625q-1.140625 -1.546875 -3.453125 -1.546875zm35.765625 8.453125l-6.0 0l0 13.8125l-4.3125 0l0 -34.125l9.5625 0q5.015625 0 7.59375 2.609375q2.578125 2.609375 2.578125 7.65625q0 3.15625 -1.40625 5.515625q-1.390625 2.359375 -3.9375 3.546875l6.609375 14.515625l0 0.28125l-4.625 0l-6.0625 -13.8125zm-6.0 -3.671875l5.203125 0q2.6875 0 4.296875 -1.734375q1.609375 -1.734375 1.609375 -4.640625q0 -6.5625 -5.953125 -6.5625l-5.15625 0l0 12.9375zm33.632828 17.484375q-0.375 -0.828125 -0.546875 -2.765625q-2.203125 3.234375 -5.625 3.234375q-3.4375 0 -5.3750153 -1.9375q-1.9375 -1.9375 -1.9375 -5.453125q0 -3.859375 2.6250153 -6.125q2.625 -2.28125 7.203125 -2.328125l3.046875 0l0 -2.703125q0 -2.265625 -1.015625 -3.21875q-1.0 -0.96875 -3.0625 -0.96875q-1.875 0 -3.046875 1.109375q-1.171875 1.109375 -1.171875 2.828125l-4.1562653 0q0 -1.953125 1.140625 -3.71875q1.1562653 -1.765625 3.0937653 -2.765625q1.953125 -1.015625 4.34375 -1.015625q3.890625 0 5.921875 1.9375q2.03125 1.921875 2.078125 5.625l0 12.796875q0.015625 2.9375 0.796875 5.09375l0 0.375l-4.3125 0zm-5.53125 -3.3125q1.515625 0 2.890625 -0.84375q1.390625 -0.84375 2.03125 -2.109375l0 -6.046875l-2.34375 0q-2.953125 0.046875 -4.671875 1.328125q-1.703125 1.28125 -1.703125 3.578125q0 2.15625 0.859375 3.125q0.875 0.96875 2.9375 0.96875zm20.898438 -28.1875l0 6.140625l3.828125 0l0 3.34375l-3.828125 0l0 15.734375q0 1.5 0.484375 2.28125q0.5 0.765625 1.703125 0.765625q0.8125 0 1.65625 -0.28125l-0.046875 3.515625q-1.40625 0.46875 -2.875 0.46875q-2.46875 0 -3.765625 -1.75q-1.28125 -1.765625 -1.28125 -4.984375l0 -15.75l-3.859375 0l0 -3.34375l3.859375 0l0 -6.140625l4.125 0zm17.820312 31.96875q-4.734375 0 -7.265625 -2.828125q-2.53125 -2.828125 -2.578125 -8.28125l0 -3.078125q0 -5.671875 2.46875 -8.890625q2.46875 -3.21875 6.90625 -3.21875q4.453125 0 6.65625 2.84375q2.203125 2.828125 2.25 8.828125l0 2.71875l-14.15625 0l0 0.578125q0 4.078125 1.53125 5.9375q1.53125 1.84375 4.421875 1.84375q1.828125 0 3.21875 -0.6875q1.390625 -0.6875 2.609375 -2.1875l2.15625 2.625q-2.6875 3.796875 -8.21875 3.796875zm-0.46875 -22.734375q-2.578125 0 -3.828125 1.765625q-1.234375 1.765625 -1.40625 5.5l9.984375 0l0 -0.5625q-0.15625 -3.609375 -1.296875 -5.15625q-1.140625 -1.546875 -3.453125 -1.546875z" fill-rule="nonzero"/><path fill="#434343" d="m53.580616 500.44232q0 7.546875 -2.203125 11.296875q-2.203125 3.734375 -6.921875 3.734375q-4.5625 0 -6.8125 -3.578125q-2.25 -3.59375 -2.34375 -10.796875l0 -5.859375q0 -7.46875 2.203125 -11.140625q2.21875 -3.6875 6.90625 -3.6875q4.625 0 6.828125 3.5q2.21875 3.484375 2.34375 10.5625l0 5.96875zm-4.15625 -5.921875q0 -5.421875 -1.203125 -7.984375q-1.1875 -2.5625 -3.8125 -2.5625q-2.546875 0 -3.75 2.515625q-1.1875 2.515625 -1.234375 7.609375l0 7.03125q0 5.390625 1.234375 8.09375q1.25 2.703125 3.796875 2.703125q2.53125 0 3.71875 -2.546875q1.203125 -2.5625 1.25 -7.8125l0 -7.046875zm10.0078125 27.28125l-2.453125 -1.6875q2.203125 -3.0625 2.296875 -6.328125l0 -3.921875l4.234375 0l0 3.40625q0 2.375 -1.15625 4.734375q-1.15625 2.375 -2.921875 3.796875zm26.578129 -32.015625q0 2.546875 -1.140625 4.546875q-1.125 1.984375 -3.046875 3.109375q2.265625 1.171875 3.546875 3.375q1.296875 2.1875 1.296875 4.96875q0 4.40625 -2.5 7.046875q-2.484375 2.640625 -6.609375 2.640625q-4.125 0 -6.625 -2.640625q-2.5 -2.640625 -2.5 -7.046875q0 -2.8125 1.28125 -5.015625q1.28125 -2.21875 3.484375 -3.34375q-1.921875 -1.125 -3.03125 -3.109375q-1.09375 -1.984375 -1.09375 -4.53125q0 -4.3125 2.328125 -6.84375q2.328125 -2.53125 6.15625 -2.53125q3.796875 0 6.125 2.515625q2.328125 2.5 2.328125 6.859375zm-3.484375 15.90625q0 -2.921875 -1.390625 -4.6875q-1.375 -1.78125 -3.625 -1.78125q-2.296875 0 -3.625 1.78125q-1.328125 1.78125 -1.328125 4.6875q0 2.953125 1.296875 4.59375q1.3125 1.640625 3.703125 1.640625q2.390625 0 3.671875 -1.640625q1.296875 -1.640625 1.296875 -4.59375zm-0.640625 -15.84375q0 -2.59375 -1.21875 -4.234375q-1.21875 -1.640625 -3.109375 -1.640625q-2.0 0 -3.171875 1.625q-1.171875 1.609375 -1.171875 4.25q0 2.671875 1.1875 4.25q1.203125 1.5625 3.15625 1.5625q1.984375 0 3.15625 -1.59375q1.171875 -1.59375 1.171875 -4.21875zm29.085938 -6.53125l-11.734375 31.6875l-4.34375 0l11.71875 -30.5625l-15.203125 0l0 -3.5625l19.5625 0l0 2.4375zm30.546867 19.0l-7.296875 0q0.046875 4.5 1.6875 7.0q1.640625 2.5 4.6875 2.5q2.328125 0 4.296875 -0.796875l0.46875 3.75q-2.421875 0.703125 -4.8125 0.703125q-4.875 0 -7.703125 -3.4375q-2.8125 -3.453125 -2.90625 -9.71875l-3.4218674 0l0 -2.90625l3.4218674 0l0 -3.203125l-3.4218674 0l0 -2.9375l3.4218674 0q0.1875 -6.015625 2.953125 -9.4375q2.78125 -3.421875 7.640625 -3.421875q2.125 0 4.828125 0.71875l-0.46875 3.796875q-2.15625 -0.8125 -4.3125 -0.8125q-2.84375 0 -4.53125 2.25q-1.6875 2.25 -1.828125 6.90625l7.296875 0l0 2.9375l-7.296875 0l0 3.203125l7.296875 0l0 2.90625zm37.171875 -6.390625l-16.4375 0l0 -3.78125l16.4375 0l0 3.78125zm0 9.71875l-16.4375 0l0 -3.75l16.4375 0l0 3.75zm29.171875 9.359375l-4.171875 0l0 -28.90625l-7.171875 3.21875l0 -3.9375l10.6875 -4.671875l0.65625 0l0 34.296875zm36.5625 -8.796875q0 -2.125 -1.171875 -3.59375q-1.171875 -1.46875 -4.03125 -2.703125q-4.1875 -1.53125 -6.109375 -3.96875q-1.921875 -2.453125 -1.921875 -6.234375q0 -3.84375 1.859375 -6.265625q1.859375 -2.421875 5.078125 -2.9375l0 -5.15625l3.296875 0l0 5.171875q3.28125 0.59375 5.078125 3.34375q1.796875 2.75 1.796875 7.515625l-4.109375 0q0 -3.265625 -1.203125 -5.234375q-1.1875 -1.96875 -3.28125 -1.96875q-2.078125 0 -3.234375 1.4375q-1.15625 1.421875 -1.15625 4.03125q0 2.359375 1.25 3.78125q1.25 1.421875 4.09375 2.609375q4.234375 1.59375 6.078125 3.984375q1.84375 2.375 1.84375 6.140625q0 3.84375 -1.96875 6.28125q-1.96875 2.4375 -5.65625 2.9375l0 4.5l-3.25 0l0 -4.5q-3.703125 -0.546875 -5.671875 -3.234375q-1.96875 -2.703125 -1.96875 -7.203125l4.125 0q0 3.265625 1.3125 5.03125q1.3125 1.75 3.703125 1.75q2.4375 0 3.828125 -1.46875q1.390625 -1.46875 1.390625 -4.046875z" fill-rule="nonzero"/><path fill="#cccccc" d="m13.596242 156.96564l440.4882 0l62.787384 62.7874l-62.787384 62.7874l-440.4882 0z" fill-rule="evenodd"/><path fill="#434343" d="m41.81499 173.70804l8.90625 27.84375l8.90625 -27.84375l5.531254 0l0 34.125l-4.296879 0l0 -13.296875l0.40625 -13.3125l-8.9375 26.609375l-3.28125 0l-8.875 -26.515625l0.390625 13.21875l0 13.296875l-4.28125 0l0 -34.125l5.53125 0zm39.21094 34.59375q-4.734375 0 -7.265625 -2.828125q-2.53125 -2.828125 -2.578125 -8.28125l0 -3.078125q0 -5.671875 2.46875 -8.890625q2.46875 -3.21875 6.90625 -3.21875q4.453125 0 6.65625 2.84375q2.203125 2.828125 2.25 8.828125l0 2.71875l-14.15625 0l0 0.578125q0 4.078125 1.53125 5.9375q1.53125 1.84375 4.421875 1.84375q1.828125 0 3.21875 -0.6875q1.390625 -0.6875 2.609375 -2.1875l2.15625 2.625q-2.6875 3.796875 -8.21875 3.796875zm-0.46875 -22.734375q-2.578125 0 -3.828125 1.765625q-1.234375 1.765625 -1.40625 5.5l9.984375 0l0 -0.5625q-0.15625 -3.609375 -1.296875 -5.15625q-1.140625 -1.546875 -3.453125 -1.546875zm22.679688 19.1875q2.0625 0 3.296875 -1.265625q1.25 -1.28125 1.375 -3.65625l3.90625 0q-0.140625 3.65625 -2.59375 6.0625q-2.4375 2.40625 -5.984375 2.40625q-4.703125 0 -7.1875 -2.96875q-2.46875 -2.96875 -2.46875 -8.828125l0 -2.78125q0 -5.75 2.453125 -8.734375q2.46875 -2.984375 7.1875 -2.984375q3.890625 0 6.171875 2.46875q2.28125 2.453125 2.421875 6.71875l-3.90625 0q-0.140625 -2.8125 -1.359375 -4.21875q-1.203125 -1.40625 -3.328125 -1.40625q-2.765625 0 -4.109375 1.8125q-1.328125 1.8125 -1.375 5.96875l0 3.234375q0 4.46875 1.3125 6.328125q1.328125 1.84375 4.1875 1.84375zm17.515625 -19.6875q2.359375 -3.0625 6.046875 -3.0625q6.7187424 0 6.8124924 8.96875l0 16.859375l-4.125 0l0 -16.671875q0 -2.96875 -1.0 -4.21875q-0.9843674 -1.265625 -2.9843674 -1.265625q-1.546875 0 -2.78125 1.03125q-1.21875 1.03125 -1.96875 2.703125l0 18.421875l-4.15625 0l0 -36.0l4.15625 0l0 13.234375zm32.08593 22.765625q-0.375 -0.828125 -0.546875 -2.765625q-2.203125 3.234375 -5.625 3.234375q-3.4375 0 -5.375 -1.9375q-1.9375 -1.9375 -1.9375 -5.453125q0 -3.859375 2.625 -6.125q2.625 -2.28125 7.203125 -2.328125l3.046875 0l0 -2.703125q0 -2.265625 -1.015625 -3.21875q-1.0 -0.96875 -3.0625 -0.96875q-1.875 0 -3.046875 1.109375q-1.171875 1.109375 -1.171875 2.828125l-4.15625 0q0 -1.953125 1.140625 -3.71875q1.15625 -1.765625 3.09375 -2.765625q1.953125 -1.015625 4.34375 -1.015625q3.890625 0 5.921875 1.9375q2.03125 1.921875 2.078125 5.625l0 12.796875q0.015625 2.9375 0.796875 5.09375l0 0.375l-4.3125 0zm-5.53125 -3.3125q1.515625 0 2.890625 -0.84375q1.390625 -0.84375 2.03125 -2.109375l0 -6.046875l-2.34375 0q-2.953125 0.046875 -4.671875 1.328125q-1.703125 1.28125 -1.703125 3.578125q0 2.15625 0.859375 3.125q0.875 0.96875 2.9375 0.96875zm19.382812 -22.046875l0.109375 2.734375q2.421875 -3.203125 6.171875 -3.203125q6.71875 0 6.8125 8.96875l0 16.859375l-4.125 0l0 -16.671875q0 -2.96875 -1.0 -4.21875q-0.984375 -1.265625 -2.984375 -1.265625q-1.546875 0 -2.78125 1.03125q-1.21875 1.03125 -1.96875 2.703125l0 18.421875l-4.15625 0l0 -25.359375l3.921875 0zm23.789062 25.359375l-4.15625 0l0 -25.359375l4.15625 0l0 25.359375zm0.328125 -32.09375q0 1.0625 -0.59375 1.765625q-0.578125 0.703125 -1.78125 0.703125q-1.171875 0 -1.765625 -0.703125q-0.578125 -0.703125 -0.578125 -1.75q0 -1.0625 0.578125 -1.78125q0.59375 -0.734375 1.765625 -0.734375q1.171875 0 1.765625 0.734375q0.609375 0.734375 0.609375 1.765625zm18.507812 25.59375q0 -1.328125 -1.015625 -2.28125q-1.0 -0.96875 -3.875 -2.265625q-3.359375 -1.375 -4.734375 -2.359375q-1.359375 -0.984375 -2.046875 -2.234375q-0.671875 -1.265625 -0.671875 -3.0q0 -3.09375 2.25 -5.140625q2.265625 -2.046875 5.78125 -2.046875q3.703125 0 5.953125 2.15625q2.25 2.15625 2.25 5.53125l-4.125 0q0 -1.71875 -1.15625 -2.921875q-1.140625 -1.203125 -2.921875 -1.203125q-1.828125 0 -2.875 0.953125q-1.03125 0.9375 -1.03125 2.53125q0 1.265625 0.75 2.046875q0.765625 0.765625 3.671875 2.03125q4.625 1.8125 6.28125 3.53125q1.671875 1.71875 1.671875 4.375q0 3.296875 -2.28125 5.28125q-2.265625 1.984375 -6.09375 1.984375q-3.953125 0 -6.421875 -2.265625q-2.453125 -2.28125 -2.453125 -5.78125l4.171875 0q0.0625 2.109375 1.28125 3.3125q1.21875 1.1875 3.421875 1.1875q2.0625 0 3.140625 -0.921875q1.078125 -0.921875 1.078125 -2.5zm13.4609375 -18.859375l0.09375 2.34375q2.3125 -2.8125 6.109375 -2.8125q4.25 0 5.9375 3.671875q2.390625 -3.671875 6.65625 -3.671875q7.0 0 7.171875 8.734375l0 17.09375l-4.125 0l0 -16.6875q0 -2.765625 -0.984375 -4.109375q-0.984375 -1.359375 -3.328125 -1.359375q-1.875 0 -3.046875 1.453125q-1.171875 1.453125 -1.359375 3.703125l0 17.0l-4.171875 0l0 -16.875q-0.078125 -5.28125 -4.296875 -5.28125q-3.140625 0 -4.421875 3.140625l0 19.015625l-4.125 0l0 -25.359375l3.890625 0zm44.523453 18.859375q0 -1.328125 -1.015625 -2.28125q-1.0 -0.96875 -3.875 -2.265625q-3.359375 -1.375 -4.734375 -2.359375q-1.359375 -0.984375 -2.0468903 -2.234375q-0.671875 -1.265625 -0.671875 -3.0q0 -3.09375 2.2500153 -5.140625q2.265625 -2.046875 5.78125 -2.046875q3.703125 0 5.953125 2.15625q2.25 2.15625 2.25 5.53125l-4.125 0q0 -1.71875 -1.15625 -2.921875q-1.140625 -1.203125 -2.921875 -1.203125q-1.828125 0 -2.875 0.953125q-1.03125 0.9375 -1.03125 2.53125q0 1.265625 0.75 2.046875q0.765625 0.765625 3.671875 2.03125q4.625 1.8125 6.28125 3.53125q1.671875 1.71875 1.671875 4.375q0 3.296875 -2.28125 5.28125q-2.265625 1.984375 -6.09375 1.984375q-3.953125 0 -6.421875 -2.265625q-2.4531403 -2.28125 -2.4531403 -5.78125l4.1718903 0q0.0625 2.109375 1.28125 3.3125q1.21875 1.1875 3.421875 1.1875q2.0625 0 3.140625 -0.921875q1.078125 -0.921875 1.078125 -2.5zm19.671875 -7.359375q0 -5.53125 2.671875 -8.75q2.6875 -3.21875 7.09375 -3.21875q4.40625 0 7.09375 3.140625q2.6875 3.140625 2.75 8.546875l0 2.671875q0 5.515625 -2.671875 8.734375q-2.671875 3.203125 -7.125 3.203125q-4.40625 0 -7.0625 -3.109375q-2.65625 -3.125 -2.75 -8.453125l0 -2.765625zm4.140625 2.390625q0 3.921875 1.53125 6.15625q1.546875 2.234375 4.140625 2.234375q5.484375 0 5.65625 -7.921875l0 -2.859375q0 -3.890625 -1.546875 -6.140625q-1.546875 -2.265625 -4.15625 -2.265625q-2.546875 0 -4.09375 2.265625q-1.53125 2.25 -1.53125 6.125l0 2.40625zm22.640625 11.46875l0 -22.015625l-3.296875 0l0 -3.34375l3.296875 0l0 -2.9375q0.078125 -3.859375 1.953125 -6.03125q1.890625 -2.171875 5.34375 -2.171875q1.234375 0 2.5 0.40625l-0.203125 3.515625q-0.890625 -0.21875 -1.90625 -0.21875q-3.53125 0 -3.53125 5.046875l0 2.390625l4.328125 0l0 3.34375l-4.328125 0l0 22.015625l-4.15625 0z" fill-rule="nonzero"/><path fill="#434343" d="m44.50249 262.7549q2.0625 0 3.296875 -1.265625q1.25 -1.28125 1.375 -3.65625l3.90625 0q-0.140625 3.65625 -2.59375 6.0625q-2.4375 2.40625 -5.984375 2.40625q-4.703125 0 -7.1875 -2.96875q-2.46875 -2.96875 -2.46875 -8.828125l0 -2.78125q0 -5.75 2.453125 -8.734375q2.46875 -2.984375 7.1875 -2.984375q3.890625 0 6.171875 2.46875q2.28125 2.453125 2.421875 6.71875l-3.90625 0q-0.140625 -2.8125 -1.359375 -4.21875q-1.203125 -1.40625 -3.328125 -1.40625q-2.765625 0 -4.109375 1.8125q-1.328125 1.8125 -1.375 5.96875l0 3.234375q0 4.46875 1.3125 6.328125q1.328125 1.84375 4.1875 1.84375zm26.296879 0.84375q-2.0625 2.703125 -6.015625 2.703125q-3.4531288 0 -5.218754 -2.375q-1.75 -2.390625 -1.765625 -6.9375l0 -16.515625l4.125 0l0 16.21875q0 5.921875 3.5625038 5.921875q3.765625 0 5.203125 -3.375l0 -18.765625l4.140625 0l0 25.359375l-3.9375 0l-0.09375 -2.234375zm20.75 -19.234375q-0.875 -0.171875 -1.875 -0.171875q-3.1875 0 -4.453125 3.5l0 18.140625l-4.15625 0l0 -25.359375l4.03125 0l0.078125 2.578125q1.65625 -3.046875 4.703125 -3.046875q0.984375 0 1.640625 0.328125l0.03125 4.03125zm14.6015625 0q-0.875 -0.171875 -1.875 -0.171875q-3.1875 0 -4.453125 3.5l0 18.140625l-4.15625 0l0 -25.359375l4.03125 0l0.078125 2.578125q1.65625 -3.046875 4.703125 -3.046875q0.984375 0 1.640625 0.328125l0.03125 4.03125zm12.75 21.9375q-4.734375 0 -7.265625 -2.828125q-2.53125 -2.828125 -2.578125 -8.28125l0 -3.078125q0 -5.671875 2.46875 -8.890625q2.46875 -3.21875 6.90625 -3.21875q4.453125 0 6.65625 2.84375q2.203125 2.828125 2.25 8.828125l0 2.71875l-14.15625 0l0 0.578125q0 4.078125 1.53125 5.9375q1.53125 1.84375 4.421875 1.84375q1.828125 0 3.21875 -0.6875q1.390625 -0.6875 2.609375 -2.1875l2.15625 2.625q-2.6875 3.796875 -8.21875 3.796875zm-0.46875 -22.734375q-2.578125 0 -3.828125 1.765625q-1.234375 1.765625 -1.40625 5.5l9.984375 0l0 -0.5625q-0.15625 -3.609375 -1.296875 -5.15625q-1.140625 -1.546875 -3.453125 -1.546875zm17.789055 -3.09375l0.109375 2.734375q2.421875 -3.203125 6.171875 -3.203125q6.71875 0 6.8125 8.96875l0 16.859375l-4.125 0l0 -16.671875q0 -2.96875 -1.0 -4.21875q-0.984375 -1.265625 -2.984375 -1.265625q-1.546875 0 -2.78125 1.03125q-1.21875 1.03125 -1.96875 2.703125l0 18.421875l-4.15625 0l0 -25.359375l3.921875 0zm28.117188 22.28125q2.0625 0 3.296875 -1.265625q1.25 -1.28125 1.375 -3.65625l3.90625 0q-0.140625 3.65625 -2.59375 6.0625q-2.4375 2.40625 -5.984375 2.40625q-4.703125 0 -7.1875 -2.96875q-2.46875 -2.96875 -2.46875 -8.828125l0 -2.78125q0 -5.75 2.453125 -8.734375q2.46875 -2.984375 7.1875 -2.984375q3.890625 0 6.171875 2.46875q2.28125 2.453125 2.421875 6.71875l-3.90625 0q-0.140625 -2.8125 -1.359375 -4.21875q-1.203125 -1.40625 -3.328125 -1.40625q-2.765625 0 -4.109375 1.8125q-1.328125 1.8125 -1.375 5.96875l0 3.234375q0 4.46875 1.3125 6.328125q1.328125 1.84375 4.1875 1.84375zm20.296875 -3.8125l4.625 -18.46875l4.40625 0l-8.296875 28.953125q-0.9375 3.25 -2.65625 4.953125q-1.703125 1.703125 -3.890625 1.703125q-0.84375 0 -2.15625 -0.375l0 -3.515625l0.921875 0.09375q1.796875 0 2.8125 -0.859375q1.03125 -0.859375 1.65625 -2.96875l0.828125 -2.84375l-7.453125 -25.140625l4.515625 0l4.6875 18.46875zm27.96875 -18.46875l0.09375 2.34375q2.3125 -2.8125 6.109375 -2.8125q4.25 0 5.9375 3.671875q2.390625 -3.671875 6.65625 -3.671875q7.0 0 7.171875 8.734375l0 17.09375l-4.125 0l0 -16.6875q0 -2.765625 -0.984375 -4.109375q-0.984375 -1.359375 -3.328125 -1.359375q-1.875 0 -3.046875 1.453125q-1.171875 1.453125 -1.359375 3.703125l0 17.0l-4.171875 0l0 -16.875q-0.078125 -5.28125 -4.296875 -5.28125q-3.140625 0 -4.421875 3.140625l0 19.015625l-4.125 0l0 -25.359375l3.890625 0zm45.257828 25.359375q-0.375 -0.828125 -0.546875 -2.765625q-2.2031403 3.234375 -5.6250153 3.234375q-3.4375 0 -5.375 -1.9375q-1.9375 -1.9375 -1.9375 -5.453125q0 -3.859375 2.625 -6.125q2.625 -2.28125 7.203125 -2.328125l3.0468903 0l0 -2.703125q0 -2.265625 -1.015625 -3.21875q-1.0000153 -0.96875 -3.0625153 -0.96875q-1.875 0 -3.046875 1.109375q-1.171875 1.109375 -1.171875 2.828125l-4.15625 0q0 -1.953125 1.140625 -3.71875q1.15625 -1.765625 3.09375 -2.765625q1.953125 -1.015625 4.34375 -1.015625q3.8906403 0 5.9218903 1.9375q2.03125 1.921875 2.078125 5.625l0 12.796875q0.015625 2.9375 0.796875 5.09375l0 0.375l-4.3125 0zm-5.5312653 -3.3125q1.515625 0 2.890625 -0.84375q1.3906403 -0.84375 2.0312653 -2.109375l0 -6.046875l-2.3437653 0q-2.953125 0.046875 -4.671875 1.328125q-1.703125 1.28125 -1.703125 3.578125q0 2.15625 0.859375 3.125q0.875 0.96875 2.9375 0.96875zm25.945328 -18.15625q-0.875 -0.171875 -1.875 -0.171875q-3.1875 0 -4.453125 3.5l0 18.140625l-4.15625 0l0 -25.359375l4.03125 0l0.078125 2.578125q1.65625 -3.046875 4.703125 -3.046875q0.984375 0 1.640625 0.328125l0.03125 4.03125zm10.4921875 9.859375l-2.203125 2.53125l0 9.078125l-4.140625 0l0 -36.0l4.140625 0l0 21.53125l7.90625 -10.890625l4.96875 0l-8.0625 10.59375l9.109375 14.765625l-4.828125 0l-6.890625 -11.609375zm23.867188 12.078125q-4.734375 0 -7.265625 -2.828125q-2.53125 -2.828125 -2.578125 -8.28125l0 -3.078125q0 -5.671875 2.46875 -8.890625q2.46875 -3.21875 6.90625 -3.21875q4.453125 0 6.65625 2.84375q2.203125 2.828125 2.25 8.828125l0 2.71875l-14.15625 0l0 0.578125q0 4.078125 1.53125 5.9375q1.53125 1.84375 4.421875 1.84375q1.828125 0 3.21875 -0.6875q1.390625 -0.6875 2.609375 -2.1875l2.15625 2.625q-2.6875 3.796875 -8.21875 3.796875zm-0.46875 -22.734375q-2.578125 0 -3.828125 1.765625q-1.234375 1.765625 -1.40625 5.5l9.984375 0l0 -0.5625q-0.15625 -3.609375 -1.296875 -5.15625q-1.140625 -1.546875 -3.453125 -1.546875zm19.304688 -9.234375l0 6.140625l3.828125 0l0 3.34375l-3.828125 0l0 15.734375q0 1.5 0.484375 2.28125q0.5 0.765625 1.703125 0.765625q0.8125 0 1.65625 -0.28125l-0.046875 3.515625q-1.40625 0.46875 -2.875 0.46875q-2.46875 0 -3.765625 -1.75q-1.28125 -1.765625 -1.28125 -4.984375l0 -15.75l-3.859375 0l0 -3.34375l3.859375 0l0 -6.140625l4.125 0zm21.070312 25.0q0 -1.328125 -1.015625 -2.28125q-1.0 -0.96875 -3.875 -2.265625q-3.359375 -1.375 -4.734375 -2.359375q-1.359375 -0.984375 -2.046875 -2.234375q-0.671875 -1.265625 -0.671875 -3.0q0 -3.09375 2.25 -5.140625q2.265625 -2.046875 5.78125 -2.046875q3.703125 0 5.953125 2.15625q2.25 2.15625 2.25 5.53125l-4.125 0q0 -1.71875 -1.15625 -2.921875q-1.140625 -1.203125 -2.921875 -1.203125q-1.828125 0 -2.875 0.953125q-1.03125 0.9375 -1.03125 2.53125q0 1.265625 0.75 2.046875q0.765625 0.765625 3.671875 2.03125q4.625 1.8125 6.28125 3.53125q1.671875 1.71875 1.671875 4.375q0 3.296875 -2.28125 5.28125q-2.265625 1.984375 -6.09375 1.984375q-3.953125 0 -6.421875 -2.265625q-2.453125 -2.28125 -2.453125 -5.78125l4.171875 0q0.0625 2.109375 1.28125 3.3125q1.21875 1.1875 3.421875 1.1875q2.0625 0 3.140625 -0.921875q1.078125 -0.921875 1.078125 -2.5z" fill-rule="nonzero"/></g></svg>